<?xml version="1.0" encoding="utf-8"?>
<!-- Generator: Adobe Illustrator 16.0.0, SVG Export Plug-In . SVG Version: 6.00 Build 0)  -->
<!DOCTYPE svg PUBLIC "-//W3C//DTD SVG 1.1//EN" "http://www.w3.org/Graphics/SVG/1.1/DTD/svg11.dtd">
<svg version="1.1" id="Capa_1" xmlns="http://www.w3.org/2000/svg" xmlns:xlink="http://www.w3.org/1999/xlink" x="0px" y="0px"
	 width="80.129px" height="80.129px" viewBox="0 0 80.129 80.129" enable-background="new 0 0 80.129 80.129" xml:space="preserve">
<path d="M40.656,41.984c6.491,0,11.753-5.262,11.753-11.752c0-6.49-5.263-11.751-11.753-11.751c-6.49,0-11.754,5.262-11.754,11.752
	C28.902,36.723,34.166,41.984,40.656,41.984z M45.641,42.786h-9.972c-8.297,0-15.047,6.75-15.047,15.047v12.195l0.031,0.191
	l0.84,0.263c7.918,2.474,14.797,3.3,20.458,3.3c11.06,0,17.469-3.154,17.864-3.355l0.785-0.396h0.084V57.833
	C60.688,49.536,53.938,42.786,45.641,42.786z"/>
</svg>
