<?xml version="1.0" encoding="utf-8"?>
<!-- Generator: Adobe Illustrator 16.0.0, SVG Export Plug-In . SVG Version: 6.00 Build 0)  -->
<!DOCTYPE svg PUBLIC "-//W3C//DTD SVG 1.1//EN" "http://www.w3.org/Graphics/SVG/1.1/DTD/svg11.dtd">
<svg version="1.1" id="Capa_1" xmlns="http://www.w3.org/2000/svg" xmlns:xlink="http://www.w3.org/1999/xlink" x="0px" y="0px"
	 width="615.309px" height="611.225px" viewBox="0 0 615.309 611.225" enable-background="new 0 0 615.309 611.225"
	 xml:space="preserve">
<g>
	<path fill="#030104" d="M545.187,291.045c-3.548,0-7.139-0.944-10.391-2.925c-9.42-5.742-12.409-18.026-6.688-27.453
		c0.42-0.697,35.605-59.971,35.605-139.319c0-21.524-6.82-41.083-19.206-55.073c-12.42-14.03-29.412-21.446-49.138-21.446
		c-37.685,0-68.344,30.659-68.344,68.344c0,16.404,8.009,58.388,11.094,73.181c2.256,10.812-4.681,21.407-15.493,23.663
		c-10.816,2.255-21.406-4.68-23.663-15.492c-1.222-5.855-11.938-57.878-11.938-81.352c0-59.741,48.603-108.344,108.344-108.344
		c31.059,0,59.146,12.406,79.088,34.932c18.866,21.311,29.256,50.286,29.256,81.587c0,91.091-39.738,157.329-41.43,160.104
		C558.517,287.632,551.932,291.045,545.187,291.045z"/>
	<path fill="#030104" d="M498.387,149.144c-4.146-34.407-4.49-34.338-38.414-38.506c-5.734-0.714-11.791-1.382-17.94-2.027
		c-0.138,1.543-0.46,2.994-0.46,4.562c0,7.254,2.072,22.086,4.651,37.446c12.598,8.752,20.865,23.307,20.865,39.818
		c0,26.808-21.74,48.547-48.548,48.547s-48.548-21.739-48.548-48.547c0-10.063,3.063-19.392,8.291-27.151
		c-2.971-17.457-5.804-37.31-5.804-50.113c0-3.362,0.714-6.472,0.99-9.765c-49.93-2.604-94.331-2.419-98.407,1.657L18.35,361.75
		c-15.8,15.799-15.8,41.432,0,57.207l171.642,171.619c15.799,15.821,41.431,15.821,57.206,0.022L503.89,333.883
		C515.591,322.23,505.411,207.847,498.387,149.144z M352.607,345.744c-3.108-10.962-9.626-24.298-21.786-36.427
		c-22.062-22.178-52.784-26.415-85.74-9.234l62.688,62.68l-19.115,19.115l-66.326-66.304c-5.665,4.397-8.566,6.586-14.278,12.298
		c-4.791,4.768-6.311,6.955-10.202,11.791l66.511,66.511l-18.932,18.931l-63.4-63.378c-17.595,31.758-15.638,63.033,8.637,87.329
		c10.824,10.802,25.148,19.393,36.435,22.708l-23.262,32.058c-10.433-2.395-29.109-11.976-47.188-30.076
		c-39.105-39.128-39.174-91.799-4.675-142.096l-16.628-16.604l18.931-18.923l14.509,14.509c3.616-4.146,4.769-5.619,8.844-9.719
		c6.241-6.219,9.72-8.866,16.075-13.934l-15.131-15.131l19.114-19.115l17.872,17.85c52.669-32.542,106.651-28.074,143.246,8.521
		c17.871,17.85,25.562,35.298,27.358,44.579L352.607,345.744z"/>
</g>
</svg>
