<?xml version="1.0" encoding="utf-8"?>
<!-- Generator: Adobe Illustrator 16.0.0, SVG Export Plug-In . SVG Version: 6.00 Build 0)  -->
<!DOCTYPE svg PUBLIC "-//W3C//DTD SVG 1.1//EN" "http://www.w3.org/Graphics/SVG/1.1/DTD/svg11.dtd">
<svg version="1.1" id="Capa_1" xmlns="http://www.w3.org/2000/svg" xmlns:xlink="http://www.w3.org/1999/xlink" x="0px" y="0px"
	 width="512px" height="512px" viewBox="0 0 512 512" enable-background="new 0 0 512 512" xml:space="preserve">
<g>
	<path fill="#182432" d="M55.389,311.299c-0.014,4.33-1.41,8.332-3.757,11.598c-3.654,5.084-9.63,8.391-16.367,8.355l-0.074,16.035
		c11.068,0.049,20.003,9.057,19.961,20.129l253.405,1.082l17.214,0.072l17.2,0.072l96.995,0.416
		c0.015-4.33,1.411-8.332,3.758-11.598c3.654-5.084,9.63-8.391,16.367-8.355c0.914,0.002,1.783,0.158,2.666,0.281l0.068-16.572
		c-0.881,0.119-1.759,0.262-2.673,0.26c-11.067-0.049-20.004-9.057-19.962-20.129c0.015-4.33,1.41-8.334,3.758-11.6
		c3.654-5.082,9.63-8.389,16.366-8.355c0.915,0.002,1.784,0.158,2.667,0.281l0.068-16.572c-0.882,0.119-1.759,0.262-2.673,0.26
		c-11.068-0.049-20.003-9.057-19.955-20.123c0.015-4.331,1.411-8.334,3.758-11.599c3.654-5.084,9.63-8.391,16.367-8.357
		c0.914,0.003,1.783,0.159,2.666,0.281l0.068-16.572c-0.882,0.119-1.759,0.263-2.673,0.26c-11.067-0.049-20.003-9.056-19.954-20.125
		c0.015-4.329,1.409-8.333,3.756-11.598c3.654-5.084,9.63-8.391,16.368-8.355c0.914,0.002,1.782,0.158,2.666,0.281l0.068-16.572
		c-0.881,0.118-1.759,0.262-2.674,0.26c-11.066-0.049-20.002-9.057-19.954-20.124l-78.829-0.335l-5.46-0.021l-0.73-0.001
		l-20.344-0.086l-10.687-0.047l-77.566-0.333l-17.2-0.073l-17.214-0.072l-156.75-0.706c-0.015,4.33-1.41,8.333-3.756,11.597
		c-3.655,5.084-9.63,8.391-16.368,8.356l-0.067,16.039c11.067,0.049,20.003,9.058,19.954,20.125
		c-0.015,4.33-1.41,8.333-3.757,11.598c-3.654,5.083-9.63,8.39-16.368,8.356l-0.067,16.039c5.391,0.025,10.26,2.205,13.848,5.679
		c2.134,2.068,3.767,4.605,4.815,7.442c0.815,2.189,1.313,4.531,1.298,7.009c-0.005,0.978-0.312,1.859-0.45,2.795
		c-0.475,3.227-1.48,6.277-3.3,8.809c-3.654,5.084-9.63,8.391-16.367,8.355l-0.067,16.039
		C46.496,291.219,55.439,300.23,55.389,311.299z"/>
</g>
</svg>
